<mxfile host="app.diagrams.net" modified="2023-04-10T02:27:56.743Z" agent="Mozilla/5.0 (Windows NT 10.0; Win64; x64) AppleWebKit/537.36 (KHTML, like Gecko) Chrome/111.0.0.0 Safari/537.36" version="21.1.4" etag="utXyaI_f-eqvM1yK-Vis" type="device">
  <diagram name="Page-1" id="Page-1">
    <mxGraphModel dx="1018" dy="654" grid="1" gridSize="10" guides="1" tooltips="1" connect="1" arrows="1" fold="1" page="1" pageScale="1" pageWidth="850" pageHeight="1100" math="0" shadow="0">
      <root>
        <mxCell id="0" />
        <mxCell id="1" parent="0" />
        <UserObject label="&lt;div style=&quot;font-size: 1px&quot;&gt;&lt;font style=&quot;font-size:16.93px;font-family:Calibri;color:#d80073;direction:ltr;letter-spacing:0px;line-height:120%;opacity:1&quot;&gt;Member&lt;br/&gt;&lt;/font&gt;&lt;/div&gt;" tags="Background" id="2">
          <mxCell style="verticalAlign=middle;align=center;overflow=width;vsdxID=25;fillColor=#d80073;gradientColor=none;shape=stencil(tZTNDoIwDICfZkfMXAX1rPgeiw5YnIyUqfj2jlQiEiGIemvXr13/UgabMpOFYoKXDu1RXfXBZQy2TAidZwq18xKDmMEmsahStOf8QHoha7KWTvZSR6jIT/DaRfAbqXNO+o5Yo/N+NhyPLgfQqSQMkPNXVIT96Ho82jRnXAbj61pNRodGsPpgsuF0NvpR2OFF7CwtzGDRwdu0xL03YTMKTwPR2PSN1AewjGZR9C4crwJZ6TJA66TTNn9ZQyMxVYH/KkiMTB9+ZCqvShWt52+S6631L8l54XkpEm0MHZq2vXtZ/BNdJYjv);strokeColor=#ffffff;points=[];labelBackgroundColor=none;rounded=0;html=1;whiteSpace=wrap;" parent="1" vertex="1">
            <mxGeometry x="120" y="402" width="38" height="101" as="geometry" />
          </mxCell>
        </UserObject>
        <UserObject label="&lt;div style=&quot;font-size: 1px&quot;&gt;&lt;font style=&quot;font-size:16.93px;font-family:Calibri;color:#ffffff;direction:ltr;letter-spacing:0px;line-height:120%;opacity:1&quot;&gt;Create Account&amp;nbsp;&lt;br&gt;&lt;/font&gt;&lt;/div&gt;" tags="Background" id="7">
          <mxCell style="verticalAlign=middle;align=center;overflow=width;vsdxID=45;fillColor=#1ba1e2;gradientColor=none;shape=stencil(vVHLDsIgEPwajiQI6RfU+h8bu22JCGRB2/69kG1iazx58DazM/vIjjBtmiCi0CplCjecbZ8nYc5Ca+snJJsLEqYTph0C4Ujh4XvmEaqzont41gkL96naodXKrGF6YSfQtUi0OXXDVlqPfJNP6usotUhYbJIUMmQb/GGrAxpRljVycDBuc1hKM2LclX8/7H9nFfB+82Cd45T2+mcspcSRmu4F);strokeColor=#ffffff;points=[];labelBackgroundColor=none;rounded=0;html=1;whiteSpace=wrap;" parent="1" vertex="1">
            <mxGeometry x="200" y="427.5" width="152" height="50" as="geometry" />
          </mxCell>
        </UserObject>
        <UserObject label="&lt;div style=&quot;font-size: 1px&quot;&gt;&lt;/div&gt;" tags="Connector" id="10">
          <mxCell style="vsdxID=80;edgeStyle=none;startArrow=none;endArrow=none;startSize=5;endSize=5;strokeColor=#178dc6;spacingTop=0;spacingBottom=0;spacingLeft=0;spacingRight=0;verticalAlign=middle;html=1;labelBackgroundColor=#ffffff;rounded=0;align=center;overflow=width;exitX=0;exitY=0.5;exitDx=0;exitDy=0;exitPerimeter=0;entryX=1;entryY=0.504950495049505;entryDx=0;entryDy=0;entryPerimeter=0;" parent="1" source="7" target="2" edge="1">
            <mxGeometry relative="1" as="geometry">
              <mxPoint as="offset" />
              <Array as="points" />
            </mxGeometry>
          </mxCell>
        </UserObject>
        <UserObject label="" tags="Connector" id="15">
          <mxCell style="vsdxID=54;edgeStyle=none;startArrow=none;endArrow=none;startSize=5;endSize=5;strokeColor=#178dc6;spacingTop=0;spacingBottom=0;spacingLeft=0;spacingRight=0;verticalAlign=middle;html=1;labelBackgroundColor=#ffffff;rounded=0;exitX=1;exitY=0.504950495049505;exitDx=0;exitDy=0;exitPerimeter=0;entryX=0;entryY=0.5;entryDx=0;entryDy=0;entryPerimeter=0;" parent="1" source="2" target="7" edge="1">
            <mxGeometry relative="1" as="geometry">
              <mxPoint x="-1" as="offset" />
              <Array as="points" />
            </mxGeometry>
          </mxCell>
        </UserObject>
        <UserObject label="" tags="Connector" id="16">
          <mxCell style="vsdxID=55;edgeStyle=none;startArrow=none;endArrow=none;startSize=5;endSize=5;strokeColor=#178dc6;spacingTop=0;spacingBottom=0;spacingLeft=0;spacingRight=0;verticalAlign=middle;html=1;labelBackgroundColor=#ffffff;rounded=0;exitX=1;exitY=0.504950495049505;exitDx=0;exitDy=0;exitPerimeter=0;entryX=0;entryY=0.5;entryDx=0;entryDy=0;entryPerimeter=0;" parent="1" source="2" target="7" edge="1">
            <mxGeometry relative="1" as="geometry">
              <mxPoint x="-1" as="offset" />
              <Array as="points" />
            </mxGeometry>
          </mxCell>
        </UserObject>
        <UserObject label="&lt;div style=&quot;font-size: 1px&quot;&gt;&lt;font style=&quot;font-size:16.93px;font-family:Calibri;color:#d80073;direction:ltr;letter-spacing:0px;line-height:120%;opacity:1&quot;&gt;Member&lt;br/&gt;&lt;/font&gt;&lt;/div&gt;" tags="Background" id="HTKC_wr7tKuJ9lz3jM4m-16">
          <mxCell style="verticalAlign=middle;align=center;overflow=width;vsdxID=25;fillColor=#d80073;gradientColor=none;shape=stencil(tZTNDoIwDICfZkfMXAX1rPgeiw5YnIyUqfj2jlQiEiGIemvXr13/UgabMpOFYoKXDu1RXfXBZQy2TAidZwq18xKDmMEmsahStOf8QHoha7KWTvZSR6jIT/DaRfAbqXNO+o5Yo/N+NhyPLgfQqSQMkPNXVIT96Ho82jRnXAbj61pNRodGsPpgsuF0NvpR2OFF7CwtzGDRwdu0xL03YTMKTwPR2PSN1AewjGZR9C4crwJZ6TJA66TTNn9ZQyMxVYH/KkiMTB9+ZCqvShWt52+S6631L8l54XkpEm0MHZq2vXtZ/BNdJYjv);strokeColor=#ffffff;points=[];labelBackgroundColor=none;rounded=0;html=1;whiteSpace=wrap;" vertex="1" parent="1">
            <mxGeometry x="120" y="402" width="38" height="101" as="geometry" />
          </mxCell>
        </UserObject>
        <mxCell id="HTKC_wr7tKuJ9lz3jM4m-18" value="" style="endArrow=none;html=1;rounded=0;" edge="1" parent="1">
          <mxGeometry width="50" height="50" relative="1" as="geometry">
            <mxPoint x="302" y="430" as="sourcePoint" />
            <mxPoint x="400" y="320" as="targetPoint" />
          </mxGeometry>
        </mxCell>
        <mxCell id="HTKC_wr7tKuJ9lz3jM4m-19" value="" style="endArrow=none;html=1;rounded=0;" edge="1" parent="1">
          <mxGeometry width="50" height="50" relative="1" as="geometry">
            <mxPoint x="352" y="452" as="sourcePoint" />
            <mxPoint x="430" y="452" as="targetPoint" />
          </mxGeometry>
        </mxCell>
        <mxCell id="HTKC_wr7tKuJ9lz3jM4m-20" value="" style="endArrow=none;html=1;rounded=0;entryX=0.654;entryY=0.97;entryDx=0;entryDy=0;entryPerimeter=0;exitX=0.026;exitY=0.587;exitDx=0;exitDy=0;exitPerimeter=0;" edge="1" parent="1" source="HTKC_wr7tKuJ9lz3jM4m-23" target="7">
          <mxGeometry width="50" height="50" relative="1" as="geometry">
            <mxPoint x="400" y="560" as="sourcePoint" />
            <mxPoint x="301" y="490" as="targetPoint" />
          </mxGeometry>
        </mxCell>
        <UserObject label="&lt;div style=&quot;&quot;&gt;&lt;font face=&quot;Calibri&quot; color=&quot;#ffffff&quot;&gt;&lt;span style=&quot;font-size: 16.93px;&quot;&gt;Link Smart Alarm&amp;nbsp;&lt;/span&gt;&lt;/font&gt;&lt;/div&gt;" tags="Background" id="HTKC_wr7tKuJ9lz3jM4m-22">
          <mxCell style="verticalAlign=middle;align=center;overflow=width;vsdxID=45;fillColor=#1ba1e2;gradientColor=none;shape=stencil(vVHLDsIgEPwajiQI6RfU+h8bu22JCGRB2/69kG1iazx58DazM/vIjjBtmiCi0CplCjecbZ8nYc5Ca+snJJsLEqYTph0C4Ujh4XvmEaqzont41gkL96naodXKrGF6YSfQtUi0OXXDVlqPfJNP6usotUhYbJIUMmQb/GGrAxpRljVycDBuc1hKM2LclX8/7H9nFfB+82Cd45T2+mcspcSRmu4F);strokeColor=#ffffff;points=[];labelBackgroundColor=none;rounded=0;html=1;whiteSpace=wrap;" vertex="1" parent="1">
            <mxGeometry x="410" y="427.5" width="152" height="50" as="geometry" />
          </mxCell>
        </UserObject>
        <UserObject label="&lt;div style=&quot;font-size: 1px&quot;&gt;&lt;font style=&quot;font-size:16.93px;font-family:Calibri;color:#ffffff;direction:ltr;letter-spacing:0px;line-height:120%;opacity:1&quot;&gt;Track Sleep Movement&lt;br&gt;&lt;/font&gt;&lt;/div&gt;" tags="Background" id="HTKC_wr7tKuJ9lz3jM4m-23">
          <mxCell style="verticalAlign=middle;align=center;overflow=width;vsdxID=45;fillColor=#1ba1e2;gradientColor=none;shape=stencil(vVHLDsIgEPwajiQI6RfU+h8bu22JCGRB2/69kG1iazx58DazM/vIjjBtmiCi0CplCjecbZ8nYc5Ca+snJJsLEqYTph0C4Ujh4XvmEaqzont41gkL96naodXKrGF6YSfQtUi0OXXDVlqPfJNP6usotUhYbJIUMmQb/GGrAxpRljVycDBuc1hKM2LclX8/7H9nFfB+82Cd45T2+mcspcSRmu4F);strokeColor=#ffffff;points=[];labelBackgroundColor=none;rounded=0;html=1;whiteSpace=wrap;" vertex="1" parent="1">
            <mxGeometry x="400" y="553" width="152" height="50" as="geometry" />
          </mxCell>
        </UserObject>
        <UserObject label="&lt;div style=&quot;font-size: 1px&quot;&gt;&lt;font style=&quot;font-size:16.93px;font-family:Calibri;color:#ffffff;direction:ltr;letter-spacing:0px;line-height:120%;opacity:1&quot;&gt;Log Sleep Journal&lt;br&gt;&lt;/font&gt;&lt;/div&gt;" tags="Background" id="HTKC_wr7tKuJ9lz3jM4m-24">
          <mxCell style="verticalAlign=middle;align=center;overflow=width;vsdxID=45;fillColor=#1ba1e2;gradientColor=none;shape=stencil(vVHLDsIgEPwajiQI6RfU+h8bu22JCGRB2/69kG1iazx58DazM/vIjjBtmiCi0CplCjecbZ8nYc5Ca+snJJsLEqYTph0C4Ujh4XvmEaqzont41gkL96naodXKrGF6YSfQtUi0OXXDVlqPfJNP6usotUhYbJIUMmQb/GGrAxpRljVycDBuc1hKM2LclX8/7H9nFfB+82Cd45T2+mcspcSRmu4F);strokeColor=#ffffff;points=[];labelBackgroundColor=none;rounded=0;html=1;whiteSpace=wrap;" vertex="1" parent="1">
            <mxGeometry x="390" y="290" width="152" height="50" as="geometry" />
          </mxCell>
        </UserObject>
        <mxCell id="HTKC_wr7tKuJ9lz3jM4m-26" value="" style="endArrow=none;html=1;rounded=0;" edge="1" parent="1">
          <mxGeometry width="50" height="50" relative="1" as="geometry">
            <mxPoint x="470" y="290" as="sourcePoint" />
            <mxPoint x="530" y="230" as="targetPoint" />
          </mxGeometry>
        </mxCell>
        <mxCell id="HTKC_wr7tKuJ9lz3jM4m-27" value="" style="endArrow=none;html=1;rounded=0;" edge="1" parent="1">
          <mxGeometry width="50" height="50" relative="1" as="geometry">
            <mxPoint x="540" y="310" as="sourcePoint" />
            <mxPoint x="640" y="300" as="targetPoint" />
          </mxGeometry>
        </mxCell>
        <mxCell id="HTKC_wr7tKuJ9lz3jM4m-28" value="" style="endArrow=none;html=1;rounded=0;entryX=0.031;entryY=0.573;entryDx=0;entryDy=0;entryPerimeter=0;" edge="1" parent="1" target="HTKC_wr7tKuJ9lz3jM4m-32">
          <mxGeometry width="50" height="50" relative="1" as="geometry">
            <mxPoint x="562" y="450" as="sourcePoint" />
            <mxPoint x="662" y="440" as="targetPoint" />
          </mxGeometry>
        </mxCell>
        <UserObject label="&lt;div style=&quot;font-size: 1px&quot;&gt;&lt;font style=&quot;font-size:16.93px;font-family:Calibri;color:#ffffff;direction:ltr;letter-spacing:0px;line-height:120%;opacity:1&quot;&gt;Save Journal&lt;br&gt;&lt;/font&gt;&lt;/div&gt;" tags="Background" id="HTKC_wr7tKuJ9lz3jM4m-29">
          <mxCell style="verticalAlign=middle;align=center;overflow=width;vsdxID=45;fillColor=#1ba1e2;gradientColor=none;shape=stencil(vVHLDsIgEPwajiQI6RfU+h8bu22JCGRB2/69kG1iazx58DazM/vIjjBtmiCi0CplCjecbZ8nYc5Ca+snJJsLEqYTph0C4Ujh4XvmEaqzont41gkL96naodXKrGF6YSfQtUi0OXXDVlqPfJNP6usotUhYbJIUMmQb/GGrAxpRljVycDBuc1hKM2LclX8/7H9nFfB+82Cd45T2+mcspcSRmu4F);strokeColor=#ffffff;points=[];labelBackgroundColor=none;rounded=0;html=1;whiteSpace=wrap;" vertex="1" parent="1">
            <mxGeometry x="620" y="270" width="152" height="50" as="geometry" />
          </mxCell>
        </UserObject>
        <UserObject label="&lt;div style=&quot;font-size: 1px&quot;&gt;&lt;font style=&quot;font-size:16.93px;font-family:Calibri;color:#ffffff;direction:ltr;letter-spacing:0px;line-height:120%;opacity:1&quot;&gt;Message Prompt for Current Day&lt;br&gt;&lt;/font&gt;&lt;/div&gt;" tags="Background" id="HTKC_wr7tKuJ9lz3jM4m-30">
          <mxCell style="verticalAlign=middle;align=center;overflow=width;vsdxID=45;fillColor=#1ba1e2;gradientColor=none;shape=stencil(vVHLDsIgEPwajiQI6RfU+h8bu22JCGRB2/69kG1iazx58DazM/vIjjBtmiCi0CplCjecbZ8nYc5Ca+snJJsLEqYTph0C4Ujh4XvmEaqzont41gkL96naodXKrGF6YSfQtUi0OXXDVlqPfJNP6usotUhYbJIUMmQb/GGrAxpRljVycDBuc1hKM2LclX8/7H9nFfB+82Cd45T2+mcspcSRmu4F);strokeColor=#ffffff;points=[];labelBackgroundColor=none;rounded=0;html=1;whiteSpace=wrap;" vertex="1" parent="1">
            <mxGeometry x="510" y="190" width="152" height="50" as="geometry" />
          </mxCell>
        </UserObject>
        <UserObject label="&lt;div style=&quot;font-size: 1px&quot;&gt;&lt;font style=&quot;font-size:16.93px;font-family:Calibri;color:#ffffff;direction:ltr;letter-spacing:0px;line-height:120%;opacity:1&quot;&gt;Set Alarm Time&amp;nbsp;&lt;br&gt;&lt;/font&gt;&lt;/div&gt;" tags="Background" id="HTKC_wr7tKuJ9lz3jM4m-31">
          <mxCell style="verticalAlign=middle;align=center;overflow=width;vsdxID=45;fillColor=#1ba1e2;gradientColor=none;shape=stencil(vVHLDsIgEPwajiQI6RfU+h8bu22JCGRB2/69kG1iazx58DazM/vIjjBtmiCi0CplCjecbZ8nYc5Ca+snJJsLEqYTph0C4Ujh4XvmEaqzont41gkL96naodXKrGF6YSfQtUi0OXXDVlqPfJNP6usotUhYbJIUMmQb/GGrAxpRljVycDBuc1hKM2LclX8/7H9nFfB+82Cd45T2+mcspcSRmu4F);strokeColor=#ffffff;points=[];labelBackgroundColor=none;rounded=0;html=1;whiteSpace=wrap;" vertex="1" parent="1">
            <mxGeometry x="640" y="427.5" width="152" height="50" as="geometry" />
          </mxCell>
        </UserObject>
        <UserObject label="&lt;div style=&quot;font-size: 1px&quot;&gt;&lt;font style=&quot;font-size:16.93px;font-family:Calibri;color:#ffffff;direction:ltr;letter-spacing:0px;line-height:120%;opacity:1&quot;&gt;Connect alarm via bluetooth&amp;nbsp;&lt;br&gt;&lt;/font&gt;&lt;/div&gt;" tags="Background" id="HTKC_wr7tKuJ9lz3jM4m-32">
          <mxCell style="verticalAlign=middle;align=center;overflow=width;vsdxID=45;fillColor=#1ba1e2;gradientColor=none;shape=stencil(vVHLDsIgEPwajiQI6RfU+h8bu22JCGRB2/69kG1iazx58DazM/vIjjBtmiCi0CplCjecbZ8nYc5Ca+snJJsLEqYTph0C4Ujh4XvmEaqzont41gkL96naodXKrGF6YSfQtUi0OXXDVlqPfJNP6usotUhYbJIUMmQb/GGrAxpRljVycDBuc1hKM2LclX8/7H9nFfB+82Cd45T2+mcspcSRmu4F);strokeColor=#ffffff;points=[];labelBackgroundColor=none;rounded=0;html=1;whiteSpace=wrap;" vertex="1" parent="1">
            <mxGeometry x="630" y="360" width="152" height="50" as="geometry" />
          </mxCell>
        </UserObject>
        <mxCell id="HTKC_wr7tKuJ9lz3jM4m-33" value="" style="endArrow=none;html=1;rounded=0;" edge="1" parent="1" target="HTKC_wr7tKuJ9lz3jM4m-31">
          <mxGeometry width="50" height="50" relative="1" as="geometry">
            <mxPoint x="557" y="460" as="sourcePoint" />
            <mxPoint x="630" y="399" as="targetPoint" />
          </mxGeometry>
        </mxCell>
        <mxCell id="HTKC_wr7tKuJ9lz3jM4m-34" value="" style="endArrow=none;html=1;rounded=0;" edge="1" parent="1">
          <mxGeometry width="50" height="50" relative="1" as="geometry">
            <mxPoint x="542" y="470" as="sourcePoint" />
            <mxPoint x="630" y="520" as="targetPoint" />
          </mxGeometry>
        </mxCell>
        <UserObject label="&lt;div style=&quot;font-size: 1px&quot;&gt;&lt;font style=&quot;font-size:16.93px;font-family:Calibri;color:#ffffff;direction:ltr;letter-spacing:0px;line-height:120%;opacity:1&quot;&gt;Set Smart Wake-Up&lt;br&gt;&lt;/font&gt;&lt;/div&gt;" tags="Background" id="HTKC_wr7tKuJ9lz3jM4m-35">
          <mxCell style="verticalAlign=middle;align=center;overflow=width;vsdxID=45;fillColor=#1ba1e2;gradientColor=none;shape=stencil(vVHLDsIgEPwajiQI6RfU+h8bu22JCGRB2/69kG1iazx58DazM/vIjjBtmiCi0CplCjecbZ8nYc5Ca+snJJsLEqYTph0C4Ujh4XvmEaqzont41gkL96naodXKrGF6YSfQtUi0OXXDVlqPfJNP6usotUhYbJIUMmQb/GGrAxpRljVycDBuc1hKM2LclX8/7H9nFfB+82Cd45T2+mcspcSRmu4F);strokeColor=#ffffff;points=[];labelBackgroundColor=none;rounded=0;html=1;whiteSpace=wrap;" vertex="1" parent="1">
            <mxGeometry x="620" y="503" width="152" height="50" as="geometry" />
          </mxCell>
        </UserObject>
        <mxCell id="HTKC_wr7tKuJ9lz3jM4m-37" value="" style="endArrow=none;html=1;rounded=0;" edge="1" parent="1">
          <mxGeometry width="50" height="50" relative="1" as="geometry">
            <mxPoint x="550" y="580" as="sourcePoint" />
            <mxPoint x="670" y="590" as="targetPoint" />
          </mxGeometry>
        </mxCell>
        <mxCell id="HTKC_wr7tKuJ9lz3jM4m-38" value="" style="endArrow=none;html=1;rounded=0;" edge="1" parent="1">
          <mxGeometry width="50" height="50" relative="1" as="geometry">
            <mxPoint x="510" y="600" as="sourcePoint" />
            <mxPoint x="580" y="670" as="targetPoint" />
          </mxGeometry>
        </mxCell>
        <mxCell id="HTKC_wr7tKuJ9lz3jM4m-39" value="" style="endArrow=none;html=1;rounded=0;exitX=0.504;exitY=0.993;exitDx=0;exitDy=0;exitPerimeter=0;" edge="1" parent="1" source="HTKC_wr7tKuJ9lz3jM4m-23">
          <mxGeometry width="50" height="50" relative="1" as="geometry">
            <mxPoint x="322" y="750" as="sourcePoint" />
            <mxPoint x="477" y="720" as="targetPoint" />
          </mxGeometry>
        </mxCell>
        <UserObject label="&lt;div style=&quot;font-size: 1px&quot;&gt;&lt;font style=&quot;font-size:16.93px;font-family:Calibri;color:#ffffff;direction:ltr;letter-spacing:0px;line-height:120%;opacity:1&quot;&gt;Connect Smartwatch&amp;nbsp;&lt;br&gt;&lt;/font&gt;&lt;/div&gt;" tags="Background" id="HTKC_wr7tKuJ9lz3jM4m-40">
          <mxCell style="verticalAlign=middle;align=center;overflow=width;vsdxID=45;fillColor=#1ba1e2;gradientColor=none;shape=stencil(vVHLDsIgEPwajiQI6RfU+h8bu22JCGRB2/69kG1iazx58DazM/vIjjBtmiCi0CplCjecbZ8nYc5Ca+snJJsLEqYTph0C4Ujh4XvmEaqzont41gkL96naodXKrGF6YSfQtUi0OXXDVlqPfJNP6usotUhYbJIUMmQb/GGrAxpRljVycDBuc1hKM2LclX8/7H9nFfB+82Cd45T2+mcspcSRmu4F);strokeColor=#ffffff;points=[];labelBackgroundColor=none;rounded=0;html=1;whiteSpace=wrap;" vertex="1" parent="1">
            <mxGeometry x="650" y="570" width="152" height="50" as="geometry" />
          </mxCell>
        </UserObject>
        <UserObject label="&lt;div style=&quot;font-size: 1px&quot;&gt;&lt;font style=&quot;font-size:16.93px;font-family:Calibri;color:#ffffff;direction:ltr;letter-spacing:0px;line-height:120%;opacity:1&quot;&gt;Set Tracking Period&lt;br&gt;&lt;/font&gt;&lt;/div&gt;" tags="Background" id="HTKC_wr7tKuJ9lz3jM4m-41">
          <mxCell style="verticalAlign=middle;align=center;overflow=width;vsdxID=45;fillColor=#1ba1e2;gradientColor=none;shape=stencil(vVHLDsIgEPwajiQI6RfU+h8bu22JCGRB2/69kG1iazx58DazM/vIjjBtmiCi0CplCjecbZ8nYc5Ca+snJJsLEqYTph0C4Ujh4XvmEaqzont41gkL96naodXKrGF6YSfQtUi0OXXDVlqPfJNP6usotUhYbJIUMmQb/GGrAxpRljVycDBuc1hKM2LclX8/7H9nFfB+82Cd45T2+mcspcSRmu4F);strokeColor=#ffffff;points=[];labelBackgroundColor=none;rounded=0;html=1;whiteSpace=wrap;" vertex="1" parent="1">
            <mxGeometry x="562" y="660" width="152" height="50" as="geometry" />
          </mxCell>
        </UserObject>
        <UserObject label="&lt;div style=&quot;font-size: 1px&quot;&gt;&lt;font style=&quot;font-size:16.93px;font-family:Calibri;color:#ffffff;direction:ltr;letter-spacing:0px;line-height:120%;opacity:1&quot;&gt;View Graph Over-Time&lt;br&gt;&lt;/font&gt;&lt;/div&gt;" tags="Background" id="HTKC_wr7tKuJ9lz3jM4m-42">
          <mxCell style="verticalAlign=middle;align=center;overflow=width;vsdxID=45;fillColor=#1ba1e2;gradientColor=none;shape=stencil(vVHLDsIgEPwajiQI6RfU+h8bu22JCGRB2/69kG1iazx58DazM/vIjjBtmiCi0CplCjecbZ8nYc5Ca+snJJsLEqYTph0C4Ujh4XvmEaqzont41gkL96naodXKrGF6YSfQtUi0OXXDVlqPfJNP6usotUhYbJIUMmQb/GGrAxpRljVycDBuc1hKM2LclX8/7H9nFfB+82Cd45T2+mcspcSRmu4F);strokeColor=#ffffff;points=[];labelBackgroundColor=none;rounded=0;html=1;whiteSpace=wrap;" vertex="1" parent="1">
            <mxGeometry x="410" y="720" width="152" height="50" as="geometry" />
          </mxCell>
        </UserObject>
      </root>
    </mxGraphModel>
  </diagram>
</mxfile>
